<svg id="Layer_1" data-name="Layer 1" xmlns="http://www.w3.org/2000/svg" viewBox="0 0 1675.14 1080"><defs><style>.cls-1{fill:#fff;}</style></defs><path class="cls-1" d="M41.19,317.62A41.17,41.17,0,0,0,0,358.81V721.22a41.19,41.19,0,0,0,82.38,0V358.81A41.18,41.18,0,0,0,41.19,317.62ZM260.88,193.41a41.18,41.18,0,0,0-41.19,41.19V845.4a41.19,41.19,0,1,0,82.38,0V234.6A41.17,41.17,0,0,0,260.88,193.41ZM480.57,0a41.18,41.18,0,0,0-41.19,41.19v997.62a41.2,41.2,0,0,0,82.39,0V41.19A41.18,41.18,0,0,0,480.57,0ZM700.26,297.24a41.18,41.18,0,0,0-41.19,41.19V741.57a41.2,41.2,0,0,0,82.39,0V338.43A41.2,41.2,0,0,0,700.26,297.24Zm247.16,87.55A41.19,41.19,0,0,0,906.22,426V654a41.2,41.2,0,0,0,82.39,0V426A41.21,41.21,0,0,0,947.42,384.79Zm219.69-232.1a41.18,41.18,0,0,0-41.19,41.19V886.1a41.19,41.19,0,0,0,82.38,0V193.88A41.2,41.2,0,0,0,1167.11,152.69ZM1386.8,297.24a41.19,41.19,0,0,0-41.19,41.19V741.57a41.19,41.19,0,0,0,82.38,0V338.43A41.21,41.21,0,0,0,1386.8,297.24ZM1634,374.63a41.18,41.18,0,0,0-41.19,41.19V664.21a41.19,41.19,0,0,0,82.38,0V415.82A41.18,41.18,0,0,0,1634,374.63Z"/></svg>