<svg id="Layer_1" data-name="Layer 1" xmlns="http://www.w3.org/2000/svg" viewBox="0 0 1920 366.66"><defs><style>.cls-1{fill:#fff;}</style></defs><path class="cls-1" d="M14,107.83a14,14,0,0,0-14,14v123a14,14,0,1,0,28,0v-123A14,14,0,0,0,14,107.83ZM88.57,65.66a14,14,0,0,0-14,14V287a14,14,0,1,0,28,0V79.65A14,14,0,0,0,88.57,65.66ZM163.16,0a14,14,0,0,0-14,14v338.7a14,14,0,0,0,28,0V14A14,14,0,0,0,163.16,0Zm74.58,100.91a14,14,0,0,0-14,14V251.76a14,14,0,1,0,28,0V114.9A14,14,0,0,0,237.74,100.91Zm83.91,29.73a14,14,0,0,0-14,14V222a14,14,0,1,0,28,0V144.62A14,14,0,0,0,321.65,130.64Zm74.58-78.8a14,14,0,0,0-14,14v235a14,14,0,0,0,28,0v-235A14,14,0,0,0,396.23,51.84Zm74.59,49.07a14,14,0,0,0-14,14V251.76a14,14,0,1,0,28,0V114.9A14,14,0,0,0,470.82,100.91Zm83.91,26.28a14,14,0,0,0-14,14V225.5a14,14,0,0,0,28,0V141.17A14,14,0,0,0,554.73,127.19Z"/><path class="cls-1" d="M842.06,239.57c-9.18,14.61-23.32,20.5-39.1,20.5-33.45,0-54-25.92-54-59.84,0-32.27,21.44-58.89,56.07-58.89,15.31,0,28.27,5.65,36.28,17.9h.47c-.24-5.18-.24-11.31-.24-19.32v-45h29.92V257.48H843l-.24-17.91Zm.24-39.34c0-19.08-12.49-35.81-31.8-35.81-19.56,0-30.86,16.73-30.86,35.81,0,19.79,12.25,35.34,31.8,35.34C829.58,235.57,842.3,221.67,842.3,200.23Z"/><path class="cls-1" d="M958,237c15.31,0,29-6.83,34.39-11.54l11.78,16.25c-6.36,6.6-23.56,18.38-51.36,18.38-34.39,0-59.83-21-59.83-57.72,0-36.51,26.62-61,59.13-61,35.1,0,56.3,23.08,56.3,53.47,0,5.89-.47,15.32-.47,15.32H924C926.86,228.27,940.76,237,958,237Zm-34.4-46.41h54.66c-.47-12.48-5.18-26.85-26.39-26.85C933.93,163.72,924.51,176.2,923.56,190.57Z"/><path class="cls-1" d="M1067.49,164c-9.89,0-14.84,3.77-14.84,9.19,0,5,3.77,9,16.49,13l8,2.59c25.21,8.24,34.16,17.2,34.16,33.69,0,21.67-17.2,37.69-45.23,37.69-17.43,0-37-7.07-46.17-17.67l12.25-20.5q20.14,15.56,34.63,15.55c11.31,0,16.49-4.24,16.49-10.83,0-5.89-4.48-9.19-19.08-14.14L1051,208c-17-5.66-25.67-15.79-25.67-32.51,0-20.73,18.84-34.16,40.75-34.16,20.26,0,31.57,5.42,41,12.25l-13,20C1087.52,168.66,1077.86,164,1067.49,164Z"/><path class="cls-1" d="M1161.25,218.14v39.34h-29.92V94.93h29.92v93l41.22-44.52h33.22l-42.17,43.11,47.82,70.91h-34.86l-33.22-52.07Z"/><path class="cls-1" d="M1238.75,279.15c12.48,0,14.37-10.13,14.37-24.26V143.46h30.15V256.3c0,13.9-2.12,25.91-8.25,33.45-6.36,7.54-15.31,13.43-30.39,13.43-10.83,0-15.78-2.12-15.78-2.12l.47-23.56,3.54,1.65Zm11.3-170.56c0-9.66,7.54-16.72,18.14-16.72s18.14,7.06,18.14,16.72c0,9.9-7.54,16.73-18.14,16.73S1250.05,118.49,1250.05,108.59Z"/><path class="cls-1" d="M1304.94,200.94c0-36,26.85-59.6,62-59.6,34.87,0,61.72,23.56,61.72,59.6s-26.85,59.13-61.72,59.13C1331.79,260.07,1304.94,237,1304.94,200.94Zm62-35.34c-19.78,0-30.62,15.08-30.62,34.63s10.84,34.87,30.62,34.87c19.32,0,30.63-15.32,30.63-34.87S1386.21,165.6,1366.89,165.6Z"/><path class="cls-1" d="M1537.21,222.61l8.48,22.15c-2.36,2.12-14.14,15.31-44.53,15.31-31.09,0-59.83-21.44-59.83-58.66,0-37.46,29.68-60.07,60.3-60.07,28.75,0,40,11.54,43.12,14.6l-8.25,22.62c-3.53-3.3-13.66-12-31.33-12-17.91,0-32.28,12.49-32.28,33.46s14.37,34.63,33.93,34.63S1537.21,222.61,1537.21,222.61Z"/><path class="cls-1" d="M1593,218.14v39.34h-29.92V94.93H1593v93l41.23-44.52h33.21l-42.16,43.11,47.82,70.91h-34.87l-33.21-52.07Z"/><path class="cls-1" d="M1741.67,237c15.32,0,29-6.83,34.4-11.54l11.78,16.25c-6.36,6.6-23.56,18.38-51.36,18.38-34.39,0-59.83-21-59.83-57.72,0-36.51,26.62-61,59.13-61,35.1,0,56.3,23.08,56.3,53.47,0,5.89-.47,15.32-.47,15.32h-83.87C1710.58,228.27,1724.48,237,1741.67,237Zm-34.39-46.41h54.65c-.47-12.48-5.18-26.85-26.38-26.85C1717.65,163.72,1708.22,176.2,1707.28,190.57Z"/><path class="cls-1" d="M1828.83,143.46l30.16,80.8,29.68-80.8H1920l-53,129.33c-8.25,20-17.67,29.68-33.69,29.68-16.26,0-26.86-4.71-26.86-4.71l6.13-23.09s8,2.83,13.66,2.83c5.89,0,10.84-1.65,13.19-7.54l5-11.78-47.11-114.72Z"/></svg>