<svg id="Layer_1" data-name="Layer 1" xmlns="http://www.w3.org/2000/svg" viewBox="0 0 1920 379.36"><defs><style>.cls-1{fill:#fff;}</style></defs><path class="cls-1" d="M871.51,247.69c-9.5,15.11-24.13,21.2-40.46,21.2-34.61,0-55.81-26.81-55.81-61.91,0-33.39,22.18-60.93,58-60.93,15.84,0,29.24,5.85,37.53,18.52h.49c-.25-5.36-.25-11.7-.25-20V98h31V266.21H872.49l-.25-18.52Zm.25-40.71c0-19.74-12.92-37-32.91-37-20.23,0-31.93,17.3-31.93,37,0,20.48,12.68,36.56,32.91,36.56C858.59,243.54,871.76,229.16,871.76,207Z"/><path class="cls-1" d="M991.42,245c15.84,0,30-7.07,35.59-11.95l12.18,16.82c-6.58,6.82-24.37,19-53.13,19-35.59,0-61.91-21.69-61.91-59.71,0-37.78,27.54-63.13,61.18-63.13,36.31,0,58.25,23.89,58.25,55.33,0,6.09-.49,15.84-.49,15.84H956.32C959.25,236,973.63,245,991.42,245Zm-35.58-48h56.54c-.49-12.92-5.36-27.79-27.3-27.79C966.56,169.2,956.81,182.12,955.84,197Z"/><path class="cls-1" d="M1104.75,169.45c-10.24,0-15.35,3.9-15.35,9.5,0,5.12,3.89,9.27,17.06,13.41l8.28,2.68c26.08,8.53,35.35,17.79,35.35,34.85,0,22.43-17.8,39-46.8,39-18,0-38.27-7.31-47.77-18.28l12.67-21.2Q1089,245.49,1104,245.49c11.7,0,17.06-4.38,17.06-11.21,0-6.09-4.63-9.5-19.74-14.62L1087.69,215c-17.55-5.85-26.57-16.33-26.57-33.64,0-21.45,19.5-35.34,42.17-35.34,21,0,32.66,5.61,42.41,12.67l-13.41,20.72C1125.47,174.32,1115.47,169.45,1104.75,169.45Z"/><path class="cls-1" d="M1201.75,225.51v40.7h-31V98h31v96.28l42.65-46.07h34.37l-43.63,44.61,49.48,73.36h-36.07l-34.37-53.86Z"/><path class="cls-1" d="M1346.52,242.81a33.27,33.27,0,0,0,11.21-1.95l1.71,24.13a72.53,72.53,0,0,1-23.88,3.9c-24.13,0-34.13-11-34.13-41.68V172.62h-17.55V148.49h17.55V114.85h31v33.64h27.3v24.13h-27.3v47.77C1332.39,238.43,1335.56,242.81,1346.52,242.81Z"/><path class="cls-1" d="M1370.16,207.71c0-37.29,27.79-61.66,64.1-61.66,36.08,0,63.86,24.37,63.86,61.66s-27.78,61.18-63.86,61.18C1398,268.89,1370.16,245,1370.16,207.71Zm64.1-36.56c-20.47,0-31.68,15.6-31.68,35.83s11.21,36.08,31.68,36.08c20,0,31.69-15.85,31.69-36.08S1454.25,171.15,1434.26,171.15Z"/><path class="cls-1" d="M1552,165.06c9.51-14.14,23.64-19.5,39.24-19.5,34.61,0,55.82,26.81,55.82,61.91,0,33.39-22.18,60.93-58,60.93-18,0-28-6.33-37.78-18l-.49.24c.25,5.61.49,11,.49,19.26v40.94h-31V148.24H1552l-.49,16.58Zm-1.46,42.41c0,19.74,12.92,37.05,32.9,37.05,20.23,0,31.93-17.31,31.93-37.05,0-20.47-12.67-36.56-32.9-36.56C1563.68,170.91,1550.52,185.29,1550.52,207.47Z"/><path class="cls-1" d="M1773.28,98c29.25,0,50.94,9.51,63.86,21.21C1850.3,130.69,1864,150,1864,181.88c0,32.17-13.65,51.91-26.81,63.37-12.92,11.45-34.61,21-63.86,21h-53.86V98Zm41.19,127.48c8-7.8,16.82-20.72,16.82-43.39,0-22.42-8.77-36.07-16.82-43.87-8.28-7.56-21.69-13.65-40-13.65h-23.4V239.4h23.4C1792.78,239.4,1806.19,233.31,1814.47,225.51Z"/><path class="cls-1" d="M1874.67,289.37c11.69,0,13.89-10.49,13.89-24.38V98H1920V264.26c0,17.31-3.17,29.25-9,36.81-5.6,7.31-15.35,13.16-28.76,13.16-10.72,0-20.23-2.44-21.69-3.42l1-23.4A37.45,37.45,0,0,0,1874.67,289.37Z"/><path class="cls-1" d="M14.47,111.57A14.46,14.46,0,0,0,0,126v127.3a14.47,14.47,0,0,0,28.94,0V126A14.47,14.47,0,0,0,14.47,111.57ZM91.64,67.94A14.46,14.46,0,0,0,77.17,82.41V297a14.47,14.47,0,0,0,28.94,0V82.41A14.47,14.47,0,0,0,91.64,67.94ZM168.81,0a14.46,14.46,0,0,0-14.47,14.47V364.89a14.47,14.47,0,0,0,28.94,0V14.47A14.47,14.47,0,0,0,168.81,0ZM246,104.41a14.46,14.46,0,0,0-14.47,14.47v141.6a14.47,14.47,0,1,0,28.93,0V118.88A14.46,14.46,0,0,0,246,104.41Zm86.81,30.75a14.47,14.47,0,0,0-14.47,14.47v80.09a14.47,14.47,0,1,0,28.94,0V149.63A14.47,14.47,0,0,0,332.79,135.16ZM410,53.63A14.47,14.47,0,0,0,395.49,68.1V311.25a14.47,14.47,0,0,0,28.94,0V68.1A14.47,14.47,0,0,0,410,53.63Zm77.17,50.78a14.47,14.47,0,0,0-14.47,14.47v141.6a14.47,14.47,0,0,0,28.94,0V118.88A14.48,14.48,0,0,0,487.13,104.41Zm86.81,27.18a14.47,14.47,0,0,0-14.47,14.47v87.25a14.47,14.47,0,1,0,28.94,0V146.06A14.47,14.47,0,0,0,573.94,131.59Z"/></svg>