<svg id="Layer_1" data-name="Layer 1" xmlns="http://www.w3.org/2000/svg" viewBox="0 0 1080 999.03"><defs><style>.cls-1{fill:#fff;}</style></defs><path class="cls-1" d="M59.59,191.6a24.84,24.84,0,0,0-24.85,24.85V435.07a24.85,24.85,0,1,0,49.7,0V216.45A24.86,24.86,0,0,0,59.59,191.6Zm132.53-74.93a24.84,24.84,0,0,0-24.85,24.85V510A24.85,24.85,0,1,0,217,510V141.52A24.83,24.83,0,0,0,192.12,116.67ZM324.64,0a24.84,24.84,0,0,0-24.85,24.85V626.66a24.85,24.85,0,0,0,49.7,0V24.85A24.84,24.84,0,0,0,324.64,0ZM457.17,179.31a24.84,24.84,0,0,0-24.85,24.85V447.35a24.85,24.85,0,1,0,49.7,0V204.16A24.85,24.85,0,0,0,457.17,179.31Zm149.09,52.81A24.86,24.86,0,0,0,581.41,257V394.52a24.85,24.85,0,0,0,49.7,0V257A24.86,24.86,0,0,0,606.26,232.12Zm132.53-140A24.84,24.84,0,0,0,713.94,117V534.53a24.85,24.85,0,0,0,49.7,0V117A24.86,24.86,0,0,0,738.79,92.11Zm132.53,87.2a24.85,24.85,0,0,0-24.85,24.85V447.35a24.85,24.85,0,1,0,49.7,0V204.16A24.86,24.86,0,0,0,871.32,179.31ZM1020.41,226a24.86,24.86,0,0,0-24.85,24.85V400.68a24.85,24.85,0,0,0,49.7,0V250.84A24.85,24.85,0,0,0,1020.41,226Z"/><path class="cls-1" d="M85.82,940.37c-8.47,13.47-21.51,18.9-36.07,18.9C18.9,959.27,0,935.37,0,904.08c0-29.76,19.77-54.32,51.71-54.32,14.12,0,26.07,5.22,33.46,16.52h.43c-.21-4.78-.21-10.43-.21-17.82V807H113V956.88H86.69l-.22-16.51ZM86,904.08c0-17.6-11.52-33-29.33-33-18,0-28.47,15.42-28.47,33,0,18.25,11.3,32.59,29.34,32.59C74.31,936.67,86,923.85,86,904.08Z"/><path class="cls-1" d="M192.71,938c14.12,0,26.72-6.3,31.72-10.65l10.87,15c-5.87,6.09-21.73,16.95-47.37,16.95-31.72,0-55.19-19.34-55.19-53.23,0-33.68,24.56-56.28,54.54-56.28,32.37,0,51.93,21.3,51.93,49.32,0,5.44-.44,14.13-.44,14.13H161.42C164,929.94,176.85,938,192.71,938ZM161,895.17H211.4c-.44-11.51-4.78-24.76-24.34-24.76C170.55,870.41,161.86,881.92,161,895.17Z"/><path class="cls-1" d="M293.74,870.62c-9.13,0-13.69,3.48-13.69,8.48,0,4.56,3.47,8.25,15.21,11.95l7.38,2.39c23.25,7.6,31.51,15.86,31.51,31.07,0,20-15.86,34.76-41.72,34.76-16.08,0-34.11-6.52-42.58-16.3l11.3-18.9q18.57,14.34,31.93,14.34c10.43,0,15.21-3.91,15.21-10,0-5.43-4.12-8.48-17.6-13l-12.16-4.13c-15.65-5.21-23.69-14.55-23.69-30,0-19.12,17.39-31.51,37.59-31.51,18.69,0,29.12,5,37.81,11.3l-11.95,18.47C312.2,875,303.3,870.62,293.74,870.62Z"/><path class="cls-1" d="M380.2,920.59v36.29H352.61V807H380.2v85.82l38-41.06h30.63L410,891.48l44.11,65.4H421.92l-30.64-48Z"/><path class="cls-1" d="M451.68,976.87c11.52,0,13.25-9.34,13.25-22.38V851.72h27.81V955.79c0,12.82-1.95,23.9-7.6,30.86-5.87,7-14.12,12.38-28,12.38-10,0-14.55-2-14.55-2l.43-21.72,3.26,1.52Zm10.43-157.31c0-8.9,6.95-15.42,16.73-15.42s16.73,6.52,16.73,15.42c0,9.13-6.95,15.43-16.73,15.43S462.11,828.69,462.11,819.56Z"/><path class="cls-1" d="M512.73,904.73c0-33.24,24.77-55,57.14-55,32.16,0,56.93,21.73,56.93,55S602,959.27,569.87,959.27C537.5,959.27,512.73,938,512.73,904.73Zm57.14-32.59c-18.25,0-28.24,13.91-28.24,31.94s10,32.16,28.24,32.16c17.82,0,28.25-14.12,28.25-32.16S587.69,872.14,569.87,872.14Z"/><path class="cls-1" d="M727,924.72l7.82,20.43c-2.17,2-13,14.12-41.06,14.12-28.68,0-55.19-19.77-55.19-54.1,0-34.55,27.38-55.41,55.62-55.41,26.51,0,36.94,10.65,39.76,13.47l-7.6,20.86c-3.26-3-12.6-11.08-28.9-11.08-16.51,0-29.76,11.52-29.76,30.86s13.25,31.93,31.28,31.93S727,924.72,727,924.72Z"/><path class="cls-1" d="M778.44,920.59v36.29H750.85V807h27.59v85.82l38-41.06H847.1l-38.89,39.76,44.1,65.4H820.16l-30.64-48Z"/><path class="cls-1" d="M915.53,938c14.12,0,26.73-6.3,31.72-10.65l10.87,15c-5.87,6.09-21.73,16.95-47.37,16.95-31.72,0-55.19-19.34-55.19-53.23,0-33.68,24.56-56.28,54.54-56.28,32.37,0,51.93,21.3,51.93,49.32,0,5.44-.44,14.13-.44,14.13H884.24C886.85,929.94,899.67,938,915.53,938Zm-31.72-42.81h50.41c-.44-11.51-4.78-24.76-24.34-24.76C893.37,870.41,884.68,881.92,883.81,895.17Z"/><path class="cls-1" d="M995.92,851.72l27.81,74.52,27.37-74.52H1080L1031.11,971c-7.6,18.47-16.29,27.38-31.07,27.38-15,0-24.77-4.35-24.77-4.35l5.65-21.29s7.39,2.61,12.61,2.61c5.43,0,10-1.52,12.16-7l4.57-10.86L966.8,851.72Z"/></svg>