<svg id="Layer_1" data-name="Layer 1" xmlns="http://www.w3.org/2000/svg" viewBox="0 0 1102.97 1080"><defs><style>.cls-1{fill:#fff;}</style></defs><path class="cls-1" d="M92.76,1015.89c-9.16,14.56-23.25,20.43-39,20.43C20.43,1036.32,0,1010.49,0,976.67,0,944.5,21.37,918,55.89,918c15.27,0,28.18,5.64,36.17,17.85h.47c-.24-5.17-.24-11.27-.24-19.26V871.7h29.82v162H93.7l-.24-17.85ZM93,976.67c0-19-12.45-35.69-31.71-35.69-19.49,0-30.76,16.67-30.76,35.69,0,19.73,12.21,35.23,31.7,35.23C80.31,1011.9,93,998,93,976.67Z"/><path class="cls-1" d="M208.29,1013.31c15.27,0,28.89-6.81,34.29-11.51l11.74,16.2c-6.34,6.58-23.48,18.32-51.19,18.32-34.29,0-59.65-20.9-59.65-57.53,0-36.4,26.53-60.83,58.94-60.83,35,0,56.13,23,56.13,53.31,0,5.87-.47,15.27-.47,15.27h-83.6C177.29,1004.62,191.15,1013.31,208.29,1013.31ZM174,967h54.48c-.47-12.44-5.17-26.77-26.3-26.77C184.34,940.27,175,952.72,174,967Z"/><path class="cls-1" d="M317.49,940.51c-9.87,0-14.8,3.75-14.8,9.16,0,4.93,3.76,8.92,16.44,12.91l8,2.58c25.12,8.22,34.05,17.15,34.05,33.59,0,21.6-17.15,37.57-45.09,37.57-17.38,0-36.87-7-46-17.61l12.21-20.43q20.08,15.5,34.52,15.5c11.27,0,16.44-4.23,16.44-10.81,0-5.87-4.46-9.15-19-14.09l-13.15-4.46c-16.91-5.63-25.6-15.73-25.6-32.41,0-20.66,18.79-34,40.63-34,20.19,0,31.47,5.4,40.86,12.22l-12.92,20C337.45,945.2,327.82,940.51,317.49,940.51Z"/><path class="cls-1" d="M411,994.52v39.22H381.12v-162H411v92.76L452,920.08h33.11l-42,43,47.67,70.69H456l-33.11-51.9Z"/><path class="cls-1" d="M550.43,1011.19a32.12,32.12,0,0,0,10.81-1.88l1.64,23.25a70,70,0,0,1-23,3.76c-23.25,0-32.88-10.57-32.88-40.16v-52.6H490.08V920.31H507V887.9h29.82v32.41h26.3v23.25h-26.3v46C536.81,1007,539.87,1011.19,550.43,1011.19Z"/><path class="cls-1" d="M573.21,977.38C573.21,941.45,600,918,635,918c34.76,0,61.53,23.49,61.53,59.42s-26.77,58.94-61.53,58.94C600,1036.32,573.21,1013.31,573.21,977.38ZM635,942.15c-19.73,0-30.53,15-30.53,34.52s10.8,34.76,30.53,34.76c19.26,0,30.53-15.27,30.53-34.76S654.23,942.15,635,942.15Z"/><path class="cls-1" d="M748.39,936.28c9.16-13.62,22.78-18.79,37.81-18.79,33.35,0,53.78,25.84,53.78,59.65,0,32.17-21.37,58.71-55.89,58.71-17.38,0-27-6.11-36.4-17.38l-.47.24c.23,5.4.47,10.57.47,18.55v39.45H717.86V920.08h30.53l-.47,16ZM747,977.14c0,19,12.45,35.7,31.7,35.7,19.5,0,30.77-16.68,30.77-35.7,0-19.72-12.21-35.22-31.7-35.22C759.66,941.92,747,955.77,747,977.14Z"/><path class="cls-1" d="M961.61,871.7c28.18,0,49.08,9.16,61.53,20.43,12.68,11,25.83,29.59,25.83,60.35,0,31-13.15,50-25.83,61.06-12.45,11-33.35,20.2-61.53,20.2H909.72v-162Zm39.69,122.82c7.75-7.52,16.2-20,16.2-41.8,0-21.61-8.45-34.76-16.2-42.27-8-7.28-20.9-13.15-38.51-13.15H940.24v110.61h22.55C980.4,1007.91,993.32,1002,1001.3,994.52Z"/><path class="cls-1" d="M1059.3,1056.05c11.27,0,13.38-10.1,13.38-23.49V871.7H1103v160.16c0,16.67-3,28.18-8.68,35.46-5.41,7-14.8,12.68-27.72,12.68-10.33,0-19.49-2.35-20.9-3.29l.94-22.54A36.24,36.24,0,0,0,1059.3,1056.05Z"/><path class="cls-1" d="M32.23,207.09A26.85,26.85,0,0,0,5.37,234v236.3a26.86,26.86,0,0,0,53.72,0V234A26.86,26.86,0,0,0,32.23,207.09Zm143.24-81A26.84,26.84,0,0,0,148.62,153V551.22a26.86,26.86,0,0,0,53.71,0V153A26.84,26.84,0,0,0,175.47,126.11ZM318.72,0a26.84,26.84,0,0,0-26.86,26.86V677.32a26.86,26.86,0,1,0,53.72,0V26.86A26.85,26.85,0,0,0,318.72,0ZM462,193.81a26.85,26.85,0,0,0-26.86,26.86V483.52a26.86,26.86,0,0,0,53.72,0V220.67A26.86,26.86,0,0,0,462,193.81Zm161.15,57.08a26.85,26.85,0,0,0-26.86,26.86V426.42a26.86,26.86,0,0,0,53.72,0V277.75A26.87,26.87,0,0,0,623.11,250.89ZM766.35,99.55a26.87,26.87,0,0,0-26.86,26.86V577.75a26.86,26.86,0,1,0,53.72,0V126.41A26.87,26.87,0,0,0,766.35,99.55Zm143.24,94.26a26.85,26.85,0,0,0-26.85,26.86V483.52a26.86,26.86,0,0,0,53.71,0V220.67A26.87,26.87,0,0,0,909.59,193.81Zm161.15,50.45a26.87,26.87,0,0,0-26.86,26.86v162a26.86,26.86,0,0,0,53.72,0v-162A26.86,26.86,0,0,0,1070.74,244.26Z"/></svg>