<svg id="Layer_1" data-name="Layer 1" xmlns="http://www.w3.org/2000/svg" xmlns:xlink="http://www.w3.org/1999/xlink" viewBox="0 0 1080 1080"><defs><style>.cls-1{fill:#fff;}.cls-2{fill:url(#linear-gradient);}</style><linearGradient id="linear-gradient" x1="50" y1="540" x2="1030" y2="540" gradientUnits="userSpaceOnUse"><stop offset="0" stop-color="#246a73"/><stop offset="0.5" stop-color="#160f29"/><stop offset="1" stop-color="#368f8b"/></linearGradient></defs><circle class="cls-1" cx="540" cy="540" r="540"/><path class="cls-2" d="M74.1,409.9A24.09,24.09,0,0,0,50,434V646a24.1,24.1,0,0,0,48.2,0V434A24.1,24.1,0,0,0,74.1,409.9Zm128.52-72.66a24.09,24.09,0,0,0-24.1,24.09V718.67a24.1,24.1,0,0,0,48.2,0V361.33A24.09,24.09,0,0,0,202.62,337.24ZM331.15,224.09a24.09,24.09,0,0,0-24.1,24.09V831.82a24.1,24.1,0,0,0,48.2,0V248.18A24.09,24.09,0,0,0,331.15,224.09ZM459.67,398a24.09,24.09,0,0,0-24.1,24.1V657.92a24.1,24.1,0,1,0,48.2,0V422.08A24.1,24.1,0,0,0,459.67,398ZM604.26,449.2a24.1,24.1,0,0,0-24.1,24.1V606.69a24.1,24.1,0,1,0,48.2,0V473.3A24.11,24.11,0,0,0,604.26,449.2ZM732.79,313.41a24.09,24.09,0,0,0-24.1,24.1v405a24.1,24.1,0,0,0,48.2,0v-405A24.11,24.11,0,0,0,732.79,313.41ZM861.31,398a24.1,24.1,0,0,0-24.1,24.1V657.92a24.1,24.1,0,0,0,48.2,0V422.08A24.11,24.11,0,0,0,861.31,398Zm144.59,45.27a24.1,24.1,0,0,0-24.1,24.1V612.66a24.1,24.1,0,0,0,48.2,0V467.35A24.1,24.1,0,0,0,1005.9,443.25Z"/></svg>